# xmcd
#
# Track frame offsets: 
#        150
#        26421
#        39901
#        63645
#        83046
#        108215
#        128715
#        150307
#        162988
#        188481
#        216554
#
# Disc length: 3103 seconds
#
# Revision: 1
# Processed by: cddbd v1.5.2PL0 Copyright (c) Steve Scherf et al.
# Submitted via: ExactAudioCopy v0.90b4
#
DISCID=840c1d0b
DTITLE=DK4 - In the house
DYEAR=2004
DGENRE=Blues
TTITLE0=I cried so much for you
TTITLE1=Hidden charms
TTITLE2=In the night
TTITLE3=How many more years
TTITLE4=Bayou Girl
TTITLE5=Shameless boogie
TTITLE6=Eyes keep me in trouble
TTITLE7=Come back love
TTITLE8=Evenin
TTITLE9=Street parade
TTITLE10=Wonderin
EXTD=YEAR: 2004
EXTT0=
EXTT1=
EXTT2=
EXTT3=
EXTT4=
EXTT5=
EXTT6=
EXTT7=
EXTT8=
EXTT9=
EXTT10=
PLAYORDER=
